<mxfile host="app.diagrams.net" modified="2022-01-05T05:50:55.077Z" agent="5.0 (Windows)" etag="_Cg159JLnUJsRud0c2cY" version="16.1.4" type="github">
  <diagram id="DcDpcXdQ_BzCnlgZswgj" name="Page-1">
    <mxGraphModel dx="1422" dy="724" grid="1" gridSize="10" guides="1" tooltips="1" connect="1" arrows="1" fold="1" page="1" pageScale="1" pageWidth="827" pageHeight="1169" math="0" shadow="0">
      <root>
        <mxCell id="0" />
        <mxCell id="1" parent="0" />
        <mxCell id="X1H7lBKrA3wOXXtLy0jN-1" value="" style="shape=image;imageAspect=0;aspect=fixed;verticalLabelPosition=bottom;verticalAlign=top;image=data:image/png,iVBORw0KGgoAAAANSUhEUgAAAEAAAABACAYAAACqaXHeAAADvklEQVR4nN1bzbHCIBC2BEuwBEt4JViCJWRA796fZEuwBEuwhJSQEixh3yGbBBIwkLCAb2f24mQS9mN/P3C3yyh4hSPK+wkvACjrBmX9Rlm3KOsXXgDwCsec62MTrGBPRuOywgMrOOReczTBy+8P7bKH8YO+8fL7k3vtmwWFugUabuo3g4BCnTcZ33vCN4ZDl+zqdwQAEGXd5LYnWFDWr0jGUygA5LbJW2j3/V28K4f6b11JFKpCoar+udx2eUtQ4hOq0srjG4WqsIK98b4eoG/IBVjBPqjkkVEoVOVqggaAhKqSGrNGUN5PAe7fer2zryZC3ZiXv11QwjN2dv8aAAJ3H1HC0+u93wAAxf40m0cpbUMlKBWAzvgg1ye9n7zeL+ER8nxyGRcYqJNy534/VZUSy6DWqISqXwIcm6ryGqFNk55Q56BvlBb/q92e6r+P+2MFB+wHqlLcnxLeFuOH3afK8XLN/ENiLWUQWp/t7aXPCKGJkVpu8fIWdqFk1G4yXjNGc2+dM2jwCkd9Aiyi9BGnt5XcMIzRm5sO3JlnFWJ8t9Coxu929uaGvtWirF++VYJVNtT4xZ0cdrzUcwAaQLZzeo4ZfkyA8Eht26JEJjStHRyVwM5DSsjyumBsQlPWL+t3BirMbyxOIuEzvadamhmDPiul1WXYfV2bGeGpt7u5QdDiklPfKNRZB2JCozfZ+v5IZS9EW5Tw6L57P6HOKF0AkgOxHgB44PY22Tt38AGwbsprokyIS2GTolSumPTG4YareoxqLaVxAfC+wUG7Mmlj2cKgV+6cEEBx2fv7OPcB3Mp9NObtxpaFUD3n9QDuPsGrD1jq6FgbqQT8wIIBM3pq4PUInCi0mSvsUvQFH+PY5vraQKPRXfE7ylRt8sfz/Ql7qx9azCtC9LLYJusOnYuf0FTjc/Zxli8fwJO/JFrj2DTUcHULt88+XFHO4QHAFQpOL3CAwN0bWMIvJggHr1yg8/iWxThzSkzlYpGd/OAUhHEYmifEsBa7QBBctz/cIBiXnxKEgXNNcYGY76RtICKgxoS5+cJ0YE5gA4CMmZImxrV28pae4zsH3xuMEwo3XhBsB6U6CN1ZIv2eKP6nm8JNoBgzgA2ElHGfOhcYQHwCgWcoKiMMPoJAYyszT7igic8cZyB0mT/W+eKKEMhwrQZDb4r+lxAYAAj7owSzZrpdkjXxjep1DZ8JANbD1XLdvzOe/XDER/NduEjc89uNz3mzLFPbOxqf+2ZZxva3KeIvtglOiSfuDk/b3+yW5A8aV+/5zKczHAAAAABJRU5ErkJggg==;" vertex="1" parent="1">
          <mxGeometry x="130" y="210" width="64" height="64" as="geometry" />
        </mxCell>
        <mxCell id="X1H7lBKrA3wOXXtLy0jN-2" value="" style="shape=image;imageAspect=0;aspect=fixed;verticalLabelPosition=bottom;verticalAlign=top;image=data:image/png,iVBORw0KGgoAAAANSUhEUgAAAEAAAABACAYAAACqaXHeAAADh0lEQVR4nO1ay7GqQBAlhKZNgBAMgRAMwRAMwQxYWDRLQzAEQ2BJwUwVIRCCb8HoRQVmgPn0rXdPVe8snD7T0/8o8gzIWtjlzRFJZDGJO5IoYxL3mOQNSWQ7qg++z+QFcBEpkiiRRIckHlop5BWKKgl97s2AokrU7eqVHpcstA6r0d+6bDco/5QSshZC67MIO6oPxuZuJt2vIQHyZm9Z+QeSeMQk7qF1M4Ly7laVHzrH0PrNQoU4N8orYR0dsA91TglgawXK8blVXjnE0LqOAvP67ImAB1xEGlrfL1iK+WaS1+fQ+n7BJwExyVtofb/g7fY5EgBZC34JYJgUoYPsb1I4hkL0kQP8CL8qEQt59UUAy8aJz0SIZWXoyxGyiwBD+MgGWWaBT/RW4C4hYn37T6gGqAMCZMvy7Y/BQV+g4236I4dDEidbyrMMe1H08vxZ/z6/09O+P7jeJ8Qk7p8dIEXsyZuSU1Bm3r0feNxJrbCGcuzW374TqiSGi0hnG58zebpKljJ8nxJ1ykpKzOsz5M1+zNmNkei1KBqYu0nRU0Le7G3979x0yTkJCxX/lGxt6BoMUs0IdxUiN872Xr5hlzdHI8X7PGIN4Z0tq/s8jI1Q9nZbMckbFvKqUudMkVzayCKt5gs+Bh0uxBoJC0rcLiZ5w7w+D3YBbCtm/CSs1gxTjY6YxH0qbNnwG19SyCtkLZg0XqwXTfjjlF6xeu73TggYtMGgqJLZ0jv03MA1AUMgidMgMeuQQ5rsiACtYmzKZRcEmOYRLOCEAK4l8Rj+ewKUhzbfC5yXDkmUrDdDdICiSqCoEriIdEf14SV5c3wJ1Qe4iBQuIoW82UNRJWyc2h/+YA4oqgRJZLYKkmfW92uc4Ei7bNUkVy1cDvsCHXtHiPPNT6MUdb4DJVvXOqyGMv3ZsKfr30He7A02TfntBkSR+YrsFAlLZgjspkQa09eSsGLBms+y5LqJsGyHPYVVY/XQNf8Tyw4vWyRxGsvwoKiSpWs2LKKC4e13U4p/Qj0H055iWIeoDqtVfk0SY2gNpQu9jGFCwJZGhkFZHZaAKNI/gS3f1rblOThCVPsBLhyVzsGycIL69bh1uz26wSirhSmdFSwlAfvEai4xsj8I3Qpt6FrwXg1Ca/je/yfUU5i6tUVbXpoQyLMYiqIXCWOWsOjQtr4TDOoGO5xYdjL+Th8FnjtE1s3+H20kCrjcWu2lAAAAAElFTkSuQmCC;" vertex="1" parent="1">
          <mxGeometry x="130" y="310" width="64" height="64" as="geometry" />
        </mxCell>
        <mxCell id="X1H7lBKrA3wOXXtLy0jN-3" value="" style="shape=image;imageAspect=0;aspect=fixed;verticalLabelPosition=bottom;verticalAlign=top;image=data:image/png,iVBORw0KGgoAAAANSUhEUgAAAEAAAABACAYAAACqaXHeAAAEs0lEQVR4nNVbzbWrIBBOCRzG7MnYQEpICSkhJbiUyYYOUkJKsISUkBIswRLeWwhegqhIRM2cwyb3qszH/M9wOKxETCgGubxylEWG9wec5IsjvTnSG07yBUgVID05koJcXtfaV1JiQjGOsuBIb0BqAOnfzFVxlMXWfMwmJhTL8P6IZNq7OJLamq8ggpxugFQvxbizmt2qh3XqKRjftzQwoZg2YsmZ79ZJvrbm+3A4bMT8nkAApOcmzP+t52bMc5TFxsy3K6fb6swzUQpY0M19uRomSrEqADsQ/e1UIRPlZQcM99ZqUgCJrT5HUruVAu320um+NmiRUtYkBwByeU3EfONa86Og81ywM1Fe0gKQRvwHY3wtcc/dqAEsnOhwpHfIqVlAjEoER3r/DgAn+WJCsbl7YKIUkNONIym93qvZgaVEfslChxuRLvXeHuno71vmq6X9tWuYY6QqiLRVjhb3o6Bzin31AUgUEHkAmLIHDUdSqRg3tBkAmSgvR0FnY5AyvD84ysL8nkwUHdoUgCQfmknJAWBCsUyUF7fmt1cAAOm52N70y73Bx44B6GxQdBXZqfI2bceGbiEAWM2Q+tsKrt5D3b7LHzv0AMjlVWeUDWBkFblLSU/yZXQqxAZ4TyPyFFzAh/R7yAa0nSkdJc4pm1nlrtq25CEA+OqEGd4fEfwffH0G32mOGUGdQ9Qwp2zWfdg5uXgJiCtaeouuHmma8gLm78GqAG3K20sqQt0gfKav1TfxgP2uIUkKcYNmL6EfrX1Nh7lxwJKB0Ni7QgAwHeqgj2n976H1y4HQkFR7aQitHwegCW6lGSPoMvirAJi/B3sjK++v7d9/EQArFmhmZaV2IGR++zUA7M51VDRouaCaIym3Vr8fAJyI8S8Uro3oR3uksQ7wXgaYRvbY6zVEE+Ty6oamIWKVifLyjaSYVHwsjHVaaU2G90f7TIKCjFOCnoysjBrFlsU65kYSKrCbNamnRhwpmAwsLI8SFoZ+PNv1Ieux/wOrNhmbeAVTTPlJT4LO2hwTipnnxmyNrxYQ+o0o0qfyUX4Kec5SnecUaNrb1CGgufq/SiEWnGZliBR8FCc0Y5DTzRirTJQXXV02/9NMMe8Z05mtZlHk6RAFd2S1yNbO858rsIniHsSqcQk4bfK5Vh5yeTX9BECqTKAV+h7PAMU6p2/IIwWrTWp5RH9enL8UeQKjtL35Q9+WrOL6xsi4KhuEVJKgkzHXfmw3KWrIPRFAapY2SFrnmz7Y6/QfR8knlsYwfSsNmvHeXNJumDc0McxUzcnKzP0izbivLffcFfM2BQxQV4BUta10Um0bTV+kat3h2P2iRUdrkhETpRhQia9WhvfHJu5uikwoa01srTFFXnGUxaaAWDMDm47N6/uHapVATFt8dzZvbNVatxVHWUAur38jNKUwxowJxZgoRZsUtWFyFyo7scakjUlxgYKJUgScdqNvhKoUJSkzIGlunk4AsUw9MOASpGZaFmu7ptbYygLGs8s6Cggj6oOMd0yvfFVlgIwRHtovR3oHA3EUdB7U8YQDj0vRmFRMJk764T6KJ/na7bXVARoKyjjS23uI9kBStzbS7yXJkojPldPtP8DWo8mjSimyAAAAAElFTkSuQmCC;" vertex="1" parent="1">
          <mxGeometry x="130" y="410" width="64" height="64" as="geometry" />
        </mxCell>
        <mxCell id="X1H7lBKrA3wOXXtLy0jN-4" value="" style="shape=image;verticalLabelPosition=bottom;labelBackgroundColor=default;verticalAlign=top;aspect=fixed;imageAspect=0;image=data:image/png,iVBORw0KGgoAAAANSUhEUgAAAEAAAABACAYAAACqaXHeAAAD0ElEQVR4nO1awXHqMBDdElyCZiSu9pagweJOCZ4Ad0pwB5RABX9UgkugBJegmcQ55x+Q+I68suGHYJHozewlY0D7pN33tA5AQkJCQkI8YCgzjsuKF+VRFKoRuTrMvaaHgaHMRKG0KNTHIHJ1EKjk3Gv8Vohc1WTyfqDaz73Wb4EoVHMVAec4zb3eu4MXZXsDAT/vJIydAEvOyf87Q8nmXvfdMHYCOJZrAIBBk/wpp8AqAJV845IHAOBYrn11mHPd/wWGMlvgCjmWa4FKClTSJ4AXZctQZv5nn5YAhjITqKStc3Nlk5OD7/BKoH86ooVNfNDAropcHTguK4FqT3yHiboJMpSZtbS3J/7sMshxWY0cdSOsz7fuj7a/I8GL8jh3jkGELC0vylag2lPNbYErvLJMDMdlNUNa10Hk6kDuuE28Mjrbvmm57fRp22lj4wAQkMJc1SJXtUC1X+AKKfKiQaDeTwtcIQBAL/EPIhoAgsCY67yPwM43l13v9CGQuAuz6zQylMz7Dj13bpOwMkcmv+s0bjrdjiW/6fSxMjoDIMvAzJ3fKOyCPzUvXpRHt/MTyZvNq14DnJugKxX/TjBvhhMYWNOzOXHHvhlJvqmMzhjKzJaPcdLmy6IjJkoI7wrrJGr79qcO7frLq64ASIdoAAgZjbURWu0eXGAqo5mVN2rXWX/X/d7BULKnufBYf/5JswGCu7+3n5Hj9/5lRfmBKM2PX6vuZkY1vku9Tzs9DUAPR6IjwVukcbJH1b6reyKxZkBCrg7WDwxKJBoS/Pp3O7ft9D6k9QC00/NltOcj4iUhVP+7d61D3R+AlE1NeYnoSbil/nt9gI05PbIcYiXBr2WGkln5G/P7eyrR/lTnZhLOrpOF1vlt8BZyArjc9oIE7N61Bpg2OgESxuaIjx2NhRrgy6uupm58AHQf8H/j1lHaQydEdtw1cGohBfD7AACAt6Pkje9WEh42LPEVwDWjTaePUwS4PjBILvDqOzBn6JeFdvGwMvAX7xRgRAIHfYA4RXXo9wISaWZ7J+BLoGN+avDR7wOEHDYjv9f4ZM16RfZ3xP3dnoDTZLxpCUBKKVnDhGzOOxjtL5wXZfuF7/FKiTY20REwrMVlNR3l2g+/wYWkLHYC7hmkHEZFADG2vmtQUvarCKD6QIwE6MuLzVzVhGNrLq+0/oVf7y3xTE0ZoqgIoEAMMWv/ma+88UkEJAISAYmAREAiIBHwRAQU6sSL8ti/3PgE8KJs3TNTCT0jAS4ul5sxCz01ykoEJAIiJ+Dyj9BE9J8LPRNdQgkJCb8GfwE0Poz/GPtD2gAAAABJRU5ErkJggg==;" vertex="1" parent="1">
          <mxGeometry x="130" y="510" width="64" height="64" as="geometry" />
        </mxCell>
        <mxCell id="X1H7lBKrA3wOXXtLy0jN-5" value="" style="shape=image;imageAspect=0;aspect=fixed;verticalLabelPosition=bottom;verticalAlign=top;image=data:image/png,iVBORw0KGgoAAAANSUhEUgAAAEAAAABACAYAAACqaXHeAAAFC0lEQVR4nO1aO5LiOhT1ElgCS2AJXgJLYAlqswEyl5w4m5ToVVe3qCKZnKDHdDABwSSTEb3gRSQ9/cIzgSRbV5Zt2cjQVPlUkQCW7v/rKJowYcKECRNuCrA0RsIZknSjPiuwNL43XaMDSbrCmp+QcDR8Lkg4uzedwQGWz5DwfY3hNT85BbLmJ7B0fm+6gwAsWyjNSuaesgNYGoPlM/K/NV8iybZEEI/uFmD5zNCwl3lLQZQCu9yCztEgA1x/bYKlc8MS9iOSOB4s0897P59w9tCuYGj/bPu7/xn8LM/ItqHpGx0V8cNNGAnPHzYWXGP+5RkyIAIJR0jaRofK+zqnL4efky2qODDMje4GwwIGV3ZI0tVDWkAUBY8B55C03QQhAhiessPjZgHTf5N00/v5r14HqJY2R5JusOZLV5AyrABg2aLH2fO2LKJK7KWqNXIk6epKdvzR2Nk5iFX/1bHg4kOoEqx+hhRR6rycNFdGkzUCuw4CTa1KQmxiLmbqUwwZv2db26TB8plymbzjnHPtLuvscZk3NbrmJ60dSbzVyhrWAJYtqoBGtaa6xUvte8NlalpXLXX5e3X2uBUj0aajwKlp2zJLEthaJkKVYPOZJVhnS21WjKMGTMJgw0Vg+Yxoe81PboL1PJDnkuls4fD3vXlOUyAlGeeKyrMTpMTtqPDqxPuPuBRDlb8/ZYe2UphagH+2GQQzqnf/1zJfD/NUVmbGhLyrDzCEPX7FSHO7B0M0siuGqJZkFkhjx4C0s5PsqhmCw3IDL4m3BL+zI4161wxRRDPA6OZfXmrO+jzL3IZU6WJ84xsvqGD7l9tXgQSpnqlHtrl2FqiPylvPoDPHwWO3wbBy/u3ML3KM28dMfa2EGAMLHy0Ur1j8EGBvAvH7M+b6+/dnzI8vWP4QYMUrWgXp6EXuu0qz/NoZFItXLAqB34UAyGeHbbHDt0Lgf+u3302CsJgfP+r7gAqBRu/3Z8wLgU/F2Gch8LN4xa+aMCTT70eBj/I7SwjU7bLtl5kTtlWIhcBPxdD3wx4lwdoqjgIfxxcQHy522Kpn/iX3mC73lZanVABVOlLaRyHwaTJvwowFGoc9ZoXAn0IA5u+gU6Lac3eFyy/fBGJlyr/6nqct500gNu4oBRCI7HAwcnI5BVaaRCHwp+95hcB/dQFUBVggssPByMtkDK6Dmu3nbTi+YFkI4CjwQe6ogu19xuTS19ONqr/3urFRpnnRrav5jGbG1mYTVHD8VK6zIvdXKVANTtI5pce/jO6Nhpmc61NbhBx3+MdIbSvH8VEUWczv8K1GQ72zdPcToadCVssJ5xxvzU9SA+7c3CWELuZLWqS1nWt301b6EtQSSKFTm9SmK98+oEkIvswTmuQUiNHhKSnNw7xZonK807+HwBbCEOZb6TVL5RBWgBFWVEQIug8IwHwU1d4vur5Roi86hau9VRMkBRCIeQ1XTXLNYWXkDUAbwWGPWVOJfA0eRgBjASFfrqKR9YZb2IEgO4IQc0Kr1R20e1Pp0qtKU/exIcKujcpC1QIkE8iiw6uuB0tjx1JUl6yx2gUsy1WZXWD1vYsUQ4GnxPWRdra1iSsXHAlnHa/F9/uUVaZrra5f1Oi3TRoohNZavKlP0I2LFIxrTa7/VzJaNlhtdzUsVKrt8ijwXHBoIhuJkdtg5QbWZtgSuo81XZDw/c2nRD5r7mB3Ve8Fra5ZqEyYMGHChAkV/gJy/5hgZssY6wAAAABJRU5ErkJggg==;" vertex="1" parent="1">
          <mxGeometry x="580" y="220" width="64" height="64" as="geometry" />
        </mxCell>
        <mxCell id="X1H7lBKrA3wOXXtLy0jN-6" value="" style="shape=image;imageAspect=0;aspect=fixed;verticalLabelPosition=bottom;verticalAlign=top;image=data:image/png,iVBORw0KGgoAAAANSUhEUgAAAEAAAABACAYAAACqaXHeAAADcUlEQVR4nO2bz2saQRTH/RPyJ/RPyJ+Qc0856JhbejKHUhASWkgNeKjFWyV4CEJYCqEkKZgemqSN2R/p2mZZJ91WZ8FcutClCCVg2kzP24NOmJ1usqtmd63Og+/lsW9576POe/vURIIbN253ad35+ZmwFHdtt9pVMjmHATAwAF0MgBOW/gCw9xuA+bjrdVm/+FALZzVWEPqvfGTF99WNu+5EItH7zA+RvIVTqVmXhoGYSs3GXX+iu7BwbxgA7H1wKiUPep+rZHIuhpLdxgFwAByAL4Bhhxjs01o5AA6AA5i743IGt0CHYDotuATAC/Y+OJ3Oelw3GYfg1HcBDoAD+M8AyIYxU2u08hJEsgSRcZs+HUrvhwDgYAAsRgPvE75s7Rz65SdCc6/WaOUHKl6CSBYhcoLo49EHe0gAI+vzdtUImqcEkREIQK3Ryge96f8EQITIEc+Q4AtAhObexAKAyH+LJEJkjQLAXs0ZVqGoEV1klmwMgHORWbJpv1UoaiSG9ZOYTna5fVNMmAC6owA4UXVXUo3qvkKKZGNJjKQ3bdpvbO3KGADHrAiKO6Z1yQHEDKDbb43XYttglAC+vnz1ms3HL/+RAEgQyez17CAUJQCvQcjnEA8fAAbA+bW4eEnLzz9szNgCiEqRAxAhskS9+YDW2fZuJi4A7dJ6js3HZ4oNvwtEqbFsg2ZFUE4PjlUiMrx0sstt2n96cKySmEZ13zPGKhS1m2LGFsCkzwHTDUCCSD7SzVlazQ3hflwAfqw8WWDz6e0AQgTAXs+2wUZ1XzlRdYPIrAgKBr2HJNp/ourXX4efHhyrtP+8VFYJNNpfl+quhyE+B3AA0Q9Czh3uBEeW105QvH2fwQeh0AFMdBucegASRIbYQFlacOfNSlwA2qX1HJtPqGcAX4gEAGAVitp5qawS2as5A4PeVpj2k2HHK6aTXW57xbBb4bEEEKXimAO64hkSaGlva5txAUAbm2U2n1DPAC/xOYABUJfqmqQ3bSLyMGQVii6/pDev42TNaHvFmBVBof2yZrTHHsBEzwEcwDQA+Pbs+bvva3k5qDorjxU6KatQ1MyKoBCR3n2RWbJpP/mcYwCc81JZpf307ED76dkBA+D8fPhIHSRX++naoS8AHPFfXyKW/zuAA+AAgIH//QXXpCjYD6W4ceM2NfYX/Zjja06xLQUAAAAASUVORK5CYII=;" vertex="1" parent="1">
          <mxGeometry x="580" y="340" width="64" height="64" as="geometry" />
        </mxCell>
        <mxCell id="X1H7lBKrA3wOXXtLy0jN-7" value="" style="shape=image;imageAspect=0;aspect=fixed;verticalLabelPosition=bottom;verticalAlign=top;image=data:image/png,iVBORw0KGgoAAAANSUhEUgAAAEAAAABACAYAAACqaXHeAAAB+UlEQVR4nO2Z3ZGDIBSFLcESLCElWEJKSAkEG8gbAy+UYAmWkBJSgiVYwt0HTMSfjaCgjjln5szsJKNwvsXLJSYJBEEQBEEQ5CbiUhNXZWfx8LqeiZy41HRXTy9zWVEhr5FieQTgsiYu6eNCvlZd7+eGmE5jZVsWwAMAMZGtCG/MRB4xnkOIeABqYupCTF2okK+fBGCNUQHAjwBoLFsAVDn47qQAmMgcx2wA4JQAuKy6hkpqawzWb7bO+gigCAIAAAwhtG5OCkCnMwDm7bhzRNMaAOZ6cVsYvvE9ekfRWgCf+zCd+llk779DZ/KbeCAAzuMxkVutsb0i9C6Pw5YAiIvH14Joxt/2V6LQAKiQ1/b8r+3l3YZ3qw9bQggJoN0Wrf+wKqc/ny+Q4RLOTdoBgClW5tedyXuY7XB81P1Ue6/wb7P46ZN5AG24qhdosESD9ANjV8cAMN3GNnbFjgLgrp5HAVBPT7JrYiKtgHo02a0BfA8mbpEBbFMI51eAKqcfga4gRgJAxwDAdNq+yurCb1ME6d1HtOeNuud/dqTgALqQIjNb4XTvbr4P7R6AAZxAx2hXAHsKAPYEQEzke/kYAJa1sUG3QQAAAADYE4C47WKr2cI2CAAAAAAAAAAAAAAAAAARACTJ+NV2sBsH1NQr9r3nBEEQBEEH0x9zweVnK5uKLAAAAABJRU5ErkJggg==;" vertex="1" parent="1">
          <mxGeometry x="580" y="460" width="64" height="64" as="geometry" />
        </mxCell>
      </root>
    </mxGraphModel>
  </diagram>
</mxfile>
